<svg version="1.2" xmlns="http://www.w3.org/2000/svg" viewBox="0 0 512 512" width="512" height="512">
	<title>Chance of Percipation-svg</title>
	<style>
		.s0 { fill: #000000 } 
	</style>
	<path id="Layer" fill-rule="evenodd" class="s0" d="m46 213.9c0-28.4 5.4-55.7 16.6-81.7 11.2-26.1 26.1-48.2 45-66.8q28.4-28 67.1-44.8c25.8-11.2 53.1-16.6 81.4-16.6 28.4 0 55.7 5.4 81.7 16.6 25.9 11.2 48.2 26.1 66.8 44.8 18.7 18.6 33.6 40.9 44.8 66.8 11.2 25.8 16.6 53 16.6 81.7 0 46.4-13.8 87.7-41.3 124.4-27.5 36.4-63.1 61.3-106.3 74.8v94.3h-121.6v-93.1c-44.2-12.9-80.6-37.9-108.7-74.9q-42.1-55.4-42.1-125.5zm46.2 0c0 44.4 16 82.5 48.4 114.3q47.7 48.2 115.3 48.2c29.5 0 57-7.2 81.9-21.8 25.3-14.6 45.1-34.4 60-59.3 14.6-25 22-52.2 22-81.7 0-22.1-4.3-43-12.9-63.4-8.6-20.3-20.3-37.5-34.9-52.2-14.7-14.6-32.1-26.3-52.5-34.9-20.4-8.6-41.3-12.9-63.4-12.9-22 0-43 4.3-63.3 12.9-20.4 8.6-37.6 20.3-52.2 34.9-14.6 14.7-26.4 32.1-35 52.2-9.1 20.7-13.4 41.6-13.4 63.7zm16.6 10.3v-20.7h62.2v20.7zm31.2-101.5l15-14.9 43.5 43.6-14.9 15.2zm72.6 141.3c0-12.1 4.3-22.4 12.6-31.3 8.3-8.8 18.6-13.4 30.4-13.7l78.2-128.7 18.9 10-57.9 138.5c5.2 7.1 7.5 15.4 7.5 25.2 0 12.6-4.3 23.2-13.2 31.8-8.9 8.6-19.5 12.9-32.1 12.9-12.3 0-22.9-4.3-31.5-12.9q-12.9-12.9-12.9-31.8zm37.5-133.9v-61.9h19.8v62.2c0 0-19.8 0-19.8-0.3zm84.3 93.8v-21.3h62.2v21.3z"/>
</svg>