<svg version="1.2" xmlns="http://www.w3.org/2000/svg" viewBox="0 0 512 512" width="512" height="512">
	<title>Chance of Percipation-svg</title>
	<style>
		.s0 { fill: #000000 } 
	</style>
	<path id="Layer" class="s0" d="m12.7 276.7c3.7-3.5 8.1-5.4 13.4-5.4h307.8c16.1 0 30.2 5.8 41.9 17.6 11.7 11.7 17.6 25.6 17.6 41.9 0 16.4-5.7 30-17.4 41.3q-17.6 17-42.1 17c-15.5 0-29.4-5.9-41.1-17.4-4-3.6-5.9-8-5.9-13.2 0-4.8 1.9-9.2 5.7-12.8 3.7-3.6 8.1-5.5 13.4-5.5 5 0 9.2 1.7 12.6 5.5 3.9 4 9.2 6.1 15.3 6.1 6.3 0 11.3-2.1 15.5-6.1q6.3-6 6.3-15.1c0-6.1-2.1-11.3-6.3-15.5-4.2-4.2-9.2-6.3-15.3-6.3h-308c-5.5 0-9.9-1.9-13.2-5.9-4-3.5-5.9-7.9-5.9-13q0-7.8 5.7-13.2zm0-69.2c3.7-3.5 8.1-5.4 13.4-5.4h420.1c6.1 0 11.2-2.1 15.4-6.1q6.2-6 6.2-15.1c0-6.1-2.1-11.1-6.2-15.3-4.2-4.2-9.3-6.3-15.4-6.3-5.8 0-10.6 2.1-14.6 6.5q-5.7 5-13.2 5-7.9 0-13.2-5c-3.6-3.3-5.5-7.8-5.5-13.2 0-6.1 1.9-10.7 5.7-14.1 11.1-11.1 24.7-16.7 40.8-16.7 16.4 0 30.4 5.8 42.2 17.4 11.7 11.5 17.6 25.6 17.6 41.7 0 16.1-5.9 30-17.6 41.3-11.8 11.5-25.8 17.2-42.2 17.2h-420.1c-5.3 0-9.7-1.7-13.2-5.5-4-3.7-5.9-7.9-5.9-12.7 0-5.3 1.9-9.7 5.7-13.7z"/>
</svg>